HIERARCHY
ROOT newVegas:Hips
{
	OFFSET 0.000000 96.479958 0.000000
	CHANNELS 6 Xposition Yposition Zposition Xrotation Yrotation Zrotation
	JOINT newVegas:Pelvis
	{
		OFFSET 0.000000 0.000000 0.000000
		CHANNELS 3 Xrotation Yrotation Zrotation
		JOINT newVegas:LeftUpLeg
		{
			OFFSET 18.735201 -5.666702 -4.541200
			CHANNELS 3 Xrotation Yrotation Zrotation
			JOINT newVegas:LeftLeg
			{
				OFFSET -0.021200 -31.938179 0.493100
				CHANNELS 3 Xrotation Yrotation Zrotation
				JOINT newVegas:LeftFoot
				{
					OFFSET 0.021200 -31.938179 -4.336299
					CHANNELS 3 Xrotation Yrotation Zrotation
					JOINT newVegas:LeftToeBase
					{
						OFFSET 0.943001 -26.722000 15.023500
						CHANNELS 3 Xrotation Yrotation Zrotation
						End Site
						{
							OFFSET 0.000000 30.670183 0.000000
						}
					}
				}
				JOINT newVegas:Left_PantLeg
				{
					OFFSET 0.663870 -9.044666 -1.108900
					CHANNELS 3 Xrotation Yrotation Zrotation
					End Site
					{
						OFFSET 1.415995 20.635357 0.000000
					}
				}
			}
		}
		JOINT newVegas:RightUpLeg
		{
			OFFSET -18.735201 -5.666702 -4.541200
			CHANNELS 3 Xrotation Yrotation Zrotation
			JOINT newVegas:RightLeg
			{
				OFFSET 0.018946 -31.938133 0.493100
				CHANNELS 3 Xrotation Yrotation Zrotation
				JOINT newVegas:RightFoot
				{
					OFFSET -0.018946 -31.938126 -4.336299
					CHANNELS 3 Xrotation Yrotation Zrotation
					JOINT newVegas:RightToeBase
					{
						OFFSET -0.943001 -26.722004 15.023500
						CHANNELS 3 Xrotation Yrotation Zrotation
						End Site
						{
							OFFSET 0.000000 30.670187 0.000000
						}
					}
				}
				JOINT newVegas:Right_PantLeg
				{
					OFFSET -0.661674 -9.044716 -1.108900
					CHANNELS 3 Xrotation Yrotation Zrotation
					End Site
					{
						OFFSET -1.415958 20.635269 0.000000
					}
				}
			}
		}
	}
	JOINT newVegas:Spine
	{
		OFFSET 0.000000 10.199997 -0.299500
		CHANNELS 3 Xrotation Yrotation Zrotation
		JOINT newVegas:Spine1
		{
			OFFSET 0.000000 11.900002 -1.516600
			CHANNELS 3 Xrotation Yrotation Zrotation
			JOINT newVegas:Spine2
			{
				OFFSET 0.000000 13.600006 -2.842500
				CHANNELS 3 Xrotation Yrotation Zrotation
				JOINT newVegas:Neck
				{
					OFFSET 0.000000 9.624100 -2.890100
					CHANNELS 3 Xrotation Yrotation Zrotation
					JOINT newVegas:Head
					{
						OFFSET 0.000000 14.068802 -1.351900
						CHANNELS 3 Xrotation Yrotation Zrotation
						JOINT newVegas:Hair_Back
						{
							OFFSET 0.000000 3.231903 -17.524799
							CHANNELS 3 Xrotation Yrotation Zrotation
							End Site
							{
								OFFSET 0.000000 19.849884 0.000000
							}
						}
						JOINT newVegas:Hair_Front
						{
							OFFSET 0.000000 31.260406 4.573800
							CHANNELS 3 Xrotation Yrotation Zrotation
							JOINT newVegas:Hair_Front1
							{
								OFFSET 0.000000 2.284103 11.993300
								CHANNELS 3 Xrotation Yrotation Zrotation
								JOINT newVegas:Hair_Front2
								{
									OFFSET 0.000000 2.284103 11.993300
									CHANNELS 3 Xrotation Yrotation Zrotation
									End Site
									{
										OFFSET 0.000000 12.208862 0.000000
									}
								}
							}
						}
						JOINT newVegas:Jowel
						{
							OFFSET 0.000000 -7.458206 6.864100
							CHANNELS 3 Xrotation Yrotation Zrotation
							End Site
							{
								OFFSET 0.000000 19.849884 0.000000
							}
						}
					}
				}
				JOINT newVegas:LeftShoulder
				{
					OFFSET 15.263000 10.923401 -0.547700
					CHANNELS 3 Xrotation Yrotation Zrotation
					JOINT newVegas:LeftArm
					{
						OFFSET 25.438599 -2.830597 -13.032500
						CHANNELS 3 Xrotation Yrotation Zrotation
						JOINT newVegas:LeftForeArm
						{
							OFFSET 29.960503 0.000000 0.000000
							CHANNELS 3 Xrotation Yrotation Zrotation
							JOINT newVegas:LeftHand
							{
								OFFSET 27.849251 0.000000 0.000000
								CHANNELS 3 Xrotation Yrotation Zrotation
								JOINT newVegas:LeftHandThumb1
								{
									OFFSET 4.487587 -3.305161 6.305391
									CHANNELS 3 Xrotation Yrotation Zrotation
									JOINT newVegas:LeftHandThumb2
									{
										OFFSET 5.480453 -3.164139 3.164143
										CHANNELS 3 Xrotation Yrotation Zrotation
										JOINT newVegas:LeftHandThumb3
										{
											OFFSET 5.159721 -2.978973 2.978967
											CHANNELS 3 Xrotation Yrotation Zrotation
											End Site
											{
												OFFSET 2.494507 5.926697 1.738678
											}
										}
									}
								}
								JOINT newVegas:LeftHandIndex1
								{
									OFFSET 18.578728 -0.527832 5.208049
									CHANNELS 3 Xrotation Yrotation Zrotation
									JOINT newVegas:LeftHandIndex2
									{
										OFFSET 3.192009 0.000000 0.000000
										CHANNELS 3 Xrotation Yrotation Zrotation
										JOINT newVegas:LeftHandIndex3
										{
											OFFSET 3.835129 0.000000 0.000000
											CHANNELS 3 Xrotation Yrotation Zrotation
											End Site
											{
												OFFSET -0.034599 3.816971 0.371180
											}
										}
									}
								}
								JOINT newVegas:LeftHandMiddle1
								{
									OFFSET 18.476105 0.000000 0.000000
									CHANNELS 3 Xrotation Yrotation Zrotation
									JOINT newVegas:LeftHandMiddle2
									{
										OFFSET 3.324875 0.000000 0.000000
										CHANNELS 3 Xrotation Yrotation Zrotation
										JOINT newVegas:LeftHandMiddle3
										{
											OFFSET 4.596550 0.000000 0.000000
											CHANNELS 3 Xrotation Yrotation Zrotation
											End Site
											{
												OFFSET 0.057701 4.578827 0.399218
											}
										}
									}
								}
								JOINT newVegas:LeftHandRing1
								{
									OFFSET 17.732719 0.121887 -4.201567
									CHANNELS 3 Xrotation Yrotation Zrotation
									JOINT newVegas:LeftHandRing2
									{
										OFFSET 2.733170 0.000000 0.000000
										CHANNELS 3 Xrotation Yrotation Zrotation
										JOINT newVegas:LeftHandRing3
										{
											OFFSET 3.178268 0.000000 0.000000
											CHANNELS 3 Xrotation Yrotation Zrotation
											End Site
											{
												OFFSET 0.119102 3.170624 0.185394
											}
										}
									}
								}
								JOINT newVegas:LeftHandPinky1
								{
									OFFSET 15.989624 -0.606689 -7.535461
									CHANNELS 3 Xrotation Yrotation Zrotation
									JOINT newVegas:LeftHandPinky2
									{
										OFFSET 2.538986 0.000000 0.000000
										CHANNELS 3 Xrotation Yrotation Zrotation
										JOINT newVegas:LeftHandPinky3
										{
											OFFSET 2.593102 0.000000 0.000000
											CHANNELS 3 Xrotation Yrotation Zrotation
											End Site
											{
												OFFSET -0.150902 2.584198 0.152708
											}
										}
									}
								}
							}
							JOINT newVegas:Left_Sleeve
							{
								OFFSET 0.267448 -0.649796 0.577675
								CHANNELS 3 Xrotation Yrotation Zrotation
								End Site
								{
									OFFSET 0.000000 15.991241 0.000000
								}
							}
							JOINT newVegas:Left_CapeC
							{
								OFFSET 15.715958 -8.608795 -6.935905
								CHANNELS 3 Xrotation Yrotation Zrotation
								JOINT newVegas:Left_CapeC1
								{
									OFFSET 0.000000 -8.688499 0.000000
									CHANNELS 3 Xrotation Yrotation Zrotation
									End Site
									{
										OFFSET 0.000000 8.688499 0.000000
									}
								}
							}
						}
						JOINT newVegas:Left_CapeB
						{
							OFFSET 26.118385 -8.608795 -7.079235
							CHANNELS 3 Xrotation Yrotation Zrotation
							JOINT newVegas:Left_CapeB1
							{
								OFFSET 0.000000 -8.688499 0.000000
								CHANNELS 3 Xrotation Yrotation Zrotation
								End Site
								{
									OFFSET 0.000000 8.688499 0.000000
								}
							}
						}
						JOINT newVegas:Left_CapeA
						{
							OFFSET 5.115639 -8.608795 -10.395809
							CHANNELS 3 Xrotation Yrotation Zrotation
							JOINT newVegas:Left_CapeA1
							{
								OFFSET 0.000000 -8.688499 0.000000
								CHANNELS 3 Xrotation Yrotation Zrotation
								End Site
								{
									OFFSET 0.000000 8.688499 0.000000
								}
							}
						}
					}
				}
				JOINT newVegas:RightShoulder
				{
					OFFSET -15.263000 10.923401 -0.547700
					CHANNELS 3 Xrotation Yrotation Zrotation
					JOINT newVegas:RightArm
					{
						OFFSET -25.438599 -2.830597 -13.032500
						CHANNELS 3 Xrotation Yrotation Zrotation
						JOINT newVegas:RightForeArm
						{
							OFFSET -29.960503 0.000000 0.000000
							CHANNELS 3 Xrotation Yrotation Zrotation
							JOINT newVegas:RightHand
							{
								OFFSET -27.849251 0.000000 0.000000
								CHANNELS 3 Xrotation Yrotation Zrotation
								JOINT newVegas:RightHandThumb1
								{
									OFFSET -4.487587 -3.305161 6.305391
									CHANNELS 3 Xrotation Yrotation Zrotation
									JOINT newVegas:RightHandThumb2
									{
										OFFSET -5.480453 -3.164139 3.164143
										CHANNELS 3 Xrotation Yrotation Zrotation
										JOINT newVegas:RightHandThumb3
										{
											OFFSET -5.159721 -2.978973 2.978967
											CHANNELS 3 Xrotation Yrotation Zrotation
											End Site
											{
												OFFSET -2.494507 5.926697 1.738678
											}
										}
									}
								}
								JOINT newVegas:RightHandIndex1
								{
									OFFSET -18.578728 -0.527832 5.208049
									CHANNELS 3 Xrotation Yrotation Zrotation
									JOINT newVegas:RightHandIndex2
									{
										OFFSET -3.192009 0.000000 0.000000
										CHANNELS 3 Xrotation Yrotation Zrotation
										JOINT newVegas:RightHandIndex3
										{
											OFFSET -3.835129 0.000000 0.000000
											CHANNELS 3 Xrotation Yrotation Zrotation
											End Site
											{
												OFFSET 0.034599 3.816971 0.371180
											}
										}
									}
								}
								JOINT newVegas:RightHandMiddle1
								{
									OFFSET -18.476105 0.000000 0.000000
									CHANNELS 3 Xrotation Yrotation Zrotation
									JOINT newVegas:RightHandMiddle2
									{
										OFFSET -3.324875 0.000000 0.000000
										CHANNELS 3 Xrotation Yrotation Zrotation
										JOINT newVegas:RightHandMiddle3
										{
											OFFSET -4.596550 0.000000 0.000000
											CHANNELS 3 Xrotation Yrotation Zrotation
											End Site
											{
												OFFSET -0.057701 4.578827 0.399218
											}
										}
									}
								}
								JOINT newVegas:RightHandRing1
								{
									OFFSET -17.732719 0.121887 -4.201567
									CHANNELS 3 Xrotation Yrotation Zrotation
									JOINT newVegas:RightHandRing2
									{
										OFFSET -2.733170 0.000000 0.000000
										CHANNELS 3 Xrotation Yrotation Zrotation
										JOINT newVegas:RightHandRing3
										{
											OFFSET -3.178268 0.000000 0.000000
											CHANNELS 3 Xrotation Yrotation Zrotation
											End Site
											{
												OFFSET -0.119102 3.170624 0.185394
											}
										}
									}
								}
								JOINT newVegas:RightHandPinky1
								{
									OFFSET -15.989624 -0.606689 -7.535461
									CHANNELS 3 Xrotation Yrotation Zrotation
									JOINT newVegas:RightHandPinky2
									{
										OFFSET -2.538986 0.000000 0.000000
										CHANNELS 3 Xrotation Yrotation Zrotation
										JOINT newVegas:RightHandPinky3
										{
											OFFSET -2.593102 0.000000 0.000000
											CHANNELS 3 Xrotation Yrotation Zrotation
											End Site
											{
												OFFSET 0.150902 2.584198 0.152708
											}
										}
									}
								}
							}
							JOINT newVegas:Right_CapeC
							{
								OFFSET -15.715958 -8.608795 -6.935905
								CHANNELS 3 Xrotation Yrotation Zrotation
								JOINT newVegas:Right_CapeC1
								{
									OFFSET 0.000000 -8.688499 0.000000
									CHANNELS 3 Xrotation Yrotation Zrotation
									End Site
									{
										OFFSET 0.000000 8.688499 0.000000
									}
								}
							}
							JOINT newVegas:Right_Sleeve
							{
								OFFSET -0.267448 -0.649994 0.577675
								CHANNELS 3 Xrotation Yrotation Zrotation
								End Site
								{
									OFFSET 0.000000 15.991302 0.000000
								}
							}
						}
						JOINT newVegas:Right_CapeA
						{
							OFFSET -5.115540 -8.608795 -10.395824
							CHANNELS 3 Xrotation Yrotation Zrotation
							JOINT newVegas:Right_CapeA1
							{
								OFFSET 0.000000 -8.688499 0.000000
								CHANNELS 3 Xrotation Yrotation Zrotation
								End Site
								{
									OFFSET 0.000000 8.688499 0.000000
								}
							}
						}
						JOINT newVegas:Right_CapeB
						{
							OFFSET -26.118187 -8.608795 -7.079266
							CHANNELS 3 Xrotation Yrotation Zrotation
							JOINT newVegas:Right_CapeB1
							{
								OFFSET 0.000000 -8.688499 0.000000
								CHANNELS 3 Xrotation Yrotation Zrotation
								End Site
								{
									OFFSET 0.000000 8.688499 0.000000
								}
							}
						}
					}
				}
				JOINT newVegas:Left_Collar
				{
					OFFSET 18.625099 8.655502 8.828100
					CHANNELS 3 Xrotation Yrotation Zrotation
					JOINT newVegas:Left_Collar1
					{
						OFFSET 14.783401 10.540405 -1.259500
						CHANNELS 3 Xrotation Yrotation Zrotation
						End Site
						{
							OFFSET 0.000000 18.199875 0.000000
						}
					}
				}
				JOINT newVegas:Collar_Back
				{
					OFFSET 0.000000 15.630707 -20.132601
					CHANNELS 3 Xrotation Yrotation Zrotation
					End Site
					{
						OFFSET 0.000000 22.523010 0.000000
					}
				}
				JOINT newVegas:Left_Peck
				{
					OFFSET 17.239599 -5.132599 25.482599
					CHANNELS 3 Xrotation Yrotation Zrotation
					End Site
					{
						OFFSET 0.000000 22.523010 0.000000
					}
				}
				JOINT newVegas:Right_Peck
				{
					OFFSET -17.239599 -5.132202 25.482599
					CHANNELS 3 Xrotation Yrotation Zrotation
					End Site
					{
						OFFSET 0.000000 22.523010 0.000000
					}
				}
				JOINT newVegas:Right_Collar
				{
					OFFSET -18.625099 8.655792 8.828100
					CHANNELS 3 Xrotation Yrotation Zrotation
					JOINT newVegas:Right_Collar1
					{
						OFFSET -14.783401 10.539993 -1.259500
						CHANNELS 3 Xrotation Yrotation Zrotation
						End Site
						{
							OFFSET 0.000000 18.199631 0.000000
						}
					}
				}
			}
		}
		JOINT newVegas:Belly
		{
			OFFSET 0.000000 -6.540398 9.014299
			CHANNELS 3 Xrotation Yrotation Zrotation
			End Site
			{
				OFFSET 0.000000 11.566666 0.000000
			}
		}
	}
	JOINT newVegas:ElvisFacialAnim_Joint
	{
		OFFSET 1.000000 -95.330101 -8.825800
		CHANNELS 3 Xrotation Yrotation Zrotation
		End Site
		{
			OFFSET 0.000000 35.315800 0.000000
		}
	}
}
MOTION
Frames: 4
Frame Time: 0.016667
0.588629 54.514626 13.162907 10.257386 1.126695 2.003762 -0.000001 -0.000000 0.000000 -111.355388 -11.560658 10.418785 87.499354 5.171015 -0.152068 15.737905 -7.724713 -9.523936 -0.000000 0.000001 -0.000000 0.000001 0.000000 0.000000 -114.282254 15.979122 -7.414554 89.973577 -3.678651 -1.408409 16.557256 0.964155 11.587852 0.000000 -0.000000 -0.000000 -0.000001 0.000001 -0.000001 6.860810 -1.684276 -1.447195 12.577068 -1.034805 -1.095899 12.570155 -1.077110 -1.099538 -0.170522 -0.261820 -0.147335 -0.170534 -0.261820 -0.147335 -0.000000 0.000000 0.000000 -0.170557 -0.261819 -0.147335 -0.170482 -0.261824 -0.147335 0.000003 0.000000 -0.000000 -0.000000 0.000000 0.000000 2.038154 -12.501286 5.547276 -60.008505 -29.861700 -11.556460 -0.000000 -114.301208 0.000003 -11.910101 -28.831297 34.008045 20.858798 4.366373 2.192836 0.280533 11.989277 -27.457530 -0.000000 -0.000001 0.000001 0.425212 1.444476 -13.828667 0.836198 3.018166 -30.964963 -0.000000 -0.000000 0.000001 0.528406 5.942695 -8.228438 0.952407 3.203607 -33.106135 0.000001 -0.000000 -0.000001 0.930017 7.386331 -10.768656 1.068081 3.374085 -35.122151 -0.000002 -0.000004 0.000000 0.270932 7.579824 -14.433271 0.945464 3.192947 -32.981689 -0.000000 0.000003 0.000001 0.000000 -0.000001 0.000000 0.000000 -0.000001 0.000000 0.000000 -0.000001 0.000001 0.000000 -0.000001 -0.000001 0.000000 -0.000003 0.000000 0.000000 -0.000001 -0.000001 0.000000 -0.000002 -0.000000 1.433087 10.850710 -3.496002 -73.306877 34.141261 27.922122 0.000004 117.257819 -0.000003 11.925574 3.902113 -19.976000 0.467964 9.476108 18.594364 2.135789 -23.166516 17.501146 0.000000 -0.000000 -0.000003 2.448392 2.152561 1.738844 0.603761 -2.295184 29.472492 -0.000003 0.000001 -0.000001 -0.030327 -3.619542 -3.130920 1.500617 -3.425953 47.297752 -0.000002 -0.000002 0.000001 0.239636 -6.342801 2.621634 0.613281 -2.311945 29.709472 0.000002 0.000001 0.000001 -11.640138 -11.617289 13.904413 0.284057 -1.603162 20.094437 -0.000000 0.000001 0.000001 -0.000001 0.000000 0.000001 0.000000 0.000001 0.000001 -0.000001 0.000000 0.000001 0.000000 0.000001 -0.000000 0.000000 0.000002 0.000001 0.000000 0.000001 -0.000000 0.000000 0.000002 0.000002 0.000001 0.000000 -0.000000 0.000001 0.000000 -0.000000 0.000001 0.000000 -0.000000 0.000001 0.000000 -0.000000 0.000001 0.000000 -0.000000 0.000001 0.000000 -0.000000 0.000001 0.000000 -0.000000 0.000001 -0.000000 -0.000000 -0.000001 -0.000000 0.000000 
0.612892 54.435478 13.118136 10.527494 1.226958 2.004983 0.000000 0.000000 -0.000000 -111.740672 -11.470880 10.286681 87.362054 5.229145 -0.147183 15.962173 -7.736348 -9.386791 -0.000000 0.000000 -0.000000 0.000001 -0.000000 -0.000000 -114.629180 16.107835 -7.395088 89.939378 -3.762851 -1.407907 16.698458 0.989184 11.615733 -0.000000 0.000000 -0.000000 0.000000 0.000001 -0.000001 7.086588 -1.643415 -1.444465 12.767364 -1.020628 -1.140127 12.760481 -1.062331 -1.143889 0.521330 -0.297262 -0.209163 0.521365 -0.297262 -0.209166 -0.000000 0.000000 0.000000 0.521374 -0.297267 -0.209161 0.521222 -0.297258 -0.209165 0.000001 0.000000 0.000000 -0.000000 0.000000 0.000000 2.068328 -12.394304 6.151576 -58.624449 -28.929891 -12.183162 -0.000032 -114.948027 -0.000036 -11.192794 -27.755672 33.451149 20.859685 4.363817 2.192680 0.280842 11.988512 -27.457593 0.000003 -0.000001 -0.000001 0.424905 1.444533 -13.827418 0.836210 3.018189 -30.965212 -0.000000 -0.000000 -0.000001 0.528589 5.943461 -8.229838 0.952408 3.203605 -33.106115 0.000000 -0.000000 -0.000000 0.929992 7.386354 -10.768195 1.068074 3.374080 -35.122076 -0.000000 -0.000004 -0.000001 0.271092 7.580053 -14.432492 0.945445 3.192932 -32.981406 0.000000 0.000002 0.000001 -0.000001 0.000001 0.000000 -0.000001 0.000001 0.000000 -0.000001 0.000001 0.000000 0.000002 -0.000003 -0.000000 0.000002 -0.000003 0.000000 0.000002 -0.000003 -0.000000 0.000002 -0.000003 -0.000000 1.461482 11.134549 -3.330572 -71.860475 33.821669 27.199852 0.000001 117.434502 -0.000006 12.138202 3.880009 -18.450875 0.466637 9.475927 18.593604 2.136559 -23.165287 17.504134 -0.000002 0.000001 -0.000000 2.449266 2.151587 1.737204 0.603724 -2.295113 29.471512 -0.000002 0.000001 -0.000002 -0.030351 -3.619683 -3.131626 1.500583 -3.425936 47.297298 0.000001 0.000002 -0.000000 0.239629 -6.342687 2.621595 0.613281 -2.311939 29.709445 -0.000001 0.000001 0.000001 -11.640362 -11.617687 13.902630 0.284037 -1.603101 20.093568 0.000000 0.000003 0.000002 -0.000000 0.000001 0.000002 -0.000000 -0.000000 0.000001 -0.000000 0.000000 0.000002 0.000001 0.000004 0.000002 0.000001 0.000005 0.000003 0.000001 0.000004 0.000002 0.000001 0.000005 0.000002 0.000003 -0.000000 0.000000 0.000003 -0.000000 0.000000 0.000003 -0.000000 0.000000 0.000003 -0.000000 0.000000 0.000003 -0.000000 0.000000 0.000003 -0.000000 0.000000 0.000003 -0.000000 0.000000 -0.000000 -0.000000 0.000000 0.000000 0.000000 -0.000000 
0.641462 54.356796 13.100548 10.817021 1.330164 2.033688 -0.000001 0.000000 0.000000 -112.112986 -11.374708 10.163351 87.279367 5.286076 -0.145619 16.105260 -7.744757 -9.328421 0.000000 -0.000001 -0.000000 -0.000001 -0.000001 0.000001 -115.005578 16.291827 -7.388826 89.966111 -3.805840 -1.406574 16.790208 1.009949 11.669178 -0.000000 0.000001 -0.000000 -0.000001 -0.000000 -0.000000 7.323624 -1.595626 -1.448033 12.972735 -0.981566 -1.186087 12.966025 -1.022760 -1.189411 1.250098 -0.339303 -0.282469 1.250101 -0.339304 -0.282469 0.000001 0.000000 0.000000 1.250154 -0.339303 -0.282469 1.250102 -0.339301 -0.282470 0.000000 0.000000 0.000000 0.000001 0.000000 0.000000 2.114945 -12.310446 6.918394 -56.643879 -27.956553 -13.096895 -0.000002 -115.667696 0.000005 -10.218825 -26.532486 32.956083 20.860426 4.360987 2.192184 0.281653 11.987406 -27.457777 0.000001 -0.000000 -0.000001 0.424580 1.444432 -13.825825 0.836220 3.018208 -30.965421 -0.000000 -0.000000 -0.000000 0.528707 5.944117 -8.230293 0.952403 3.203591 -33.105971 -0.000001 0.000001 0.000000 0.929933 7.386421 -10.767159 1.068071 3.374064 -35.121953 -0.000002 0.000001 0.000001 0.271290 7.580350 -14.431317 0.945425 3.192896 -32.980993 0.000000 0.000000 0.000001 -0.000001 0.000001 0.000003 -0.000001 0.000001 0.000003 -0.000001 0.000001 0.000003 0.000000 -0.000003 -0.000001 0.000000 -0.000003 -0.000000 0.000000 -0.000003 -0.000001 0.000000 -0.000003 -0.000001 1.487706 11.465027 -3.085988 -69.923099 33.437891 26.381904 0.000060 117.615953 -0.000061 12.013541 4.096483 -16.866131 0.464860 9.475462 18.592477 2.137301 -23.163723 17.507018 -0.000000 -0.000002 -0.000001 2.450247 2.150665 1.735389 0.603667 -2.295025 29.470306 0.000001 0.000001 -0.000000 -0.030381 -3.619793 -3.132377 1.500521 -3.425879 47.296328 0.000000 -0.000000 -0.000000 0.239624 -6.342675 2.621548 0.613285 -2.311941 29.709359 0.000001 -0.000001 0.000000 -11.640431 -11.618174 13.900747 0.284004 -1.603012 20.092427 -0.000000 -0.000000 -0.000001 0.000000 -0.000002 -0.000002 0.000000 -0.000001 -0.000002 0.000000 -0.000002 -0.000002 0.000000 0.000000 0.000001 0.000000 0.000001 -0.000000 0.000000 0.000000 0.000001 0.000000 0.000001 0.000000 0.000000 0.000000 0.000000 0.000000 0.000000 0.000000 0.000000 0.000000 0.000000 0.000000 0.000000 0.000000 0.000000 0.000000 0.000000 0.000000 0.000000 0.000000 0.000000 0.000000 0.000000 -0.000001 -0.000000 -0.000000 -0.000001 0.000000 0.000000 
0.667188 54.298279 13.103962 11.096252 1.426184 2.069562 0.000001 -0.000000 -0.000000 -112.420290 -11.293994 10.071031 87.235845 5.325980 -0.147585 16.161527 -7.749328 -9.357768 0.000000 0.000000 0.000000 0.000002 -0.000002 -0.000001 -115.340325 16.484016 -7.396663 90.025841 -3.819310 -1.403829 16.817268 1.022771 11.751583 -0.000000 0.000001 -0.000000 0.000001 0.000001 -0.000001 7.559229 -1.544235 -1.456326 13.167893 -0.921942 -1.227742 13.161510 -0.962646 -1.229826 1.940805 -0.382041 -0.356007 1.940813 -0.382040 -0.356006 -0.000001 0.000000 0.000000 1.940794 -0.382039 -0.356007 1.940798 -0.382040 -0.356006 -0.000001 0.000001 0.000000 -0.000001 0.000000 0.000000 2.167035 -12.215279 7.794456 -54.283229 -27.085346 -14.223963 0.000001 -116.372476 0.000000 -9.191114 -25.254512 32.508381 20.860984 4.358166 2.190965 0.282782 11.986086 -27.457992 0.000001 -0.000002 -0.000003 0.424238 1.444157 -13.823955 0.836228 3.018217 -30.965554 0.000000 0.000000 -0.000001 0.528798 5.944701 -8.230390 0.952385 3.203567 -33.105688 0.000000 0.000000 0.000001 0.929853 7.386548 -10.765690 1.068064 3.374055 -35.121816 -0.000000 -0.000001 0.000001 0.271536 7.580725 -14.429910 0.945402 3.192855 -32.980576 0.000003 -0.000005 -0.000000 -0.000000 -0.000001 -0.000002 -0.000000 -0.000001 -0.000002 -0.000000 -0.000001 -0.000002 -0.000000 0.000002 -0.000000 -0.000000 0.000001 0.000002 -0.000000 0.000002 -0.000000 -0.000000 0.000002 -0.000000 1.506031 11.775373 -2.798576 -67.693616 33.040340 25.501042 0.000057 117.763212 -0.000062 11.410880 4.473174 -15.347881 0.463266 9.474914 18.591046 2.137469 -23.162053 17.507262 -0.000002 -0.000002 -0.000001 2.451269 2.149757 1.734129 0.603629 -2.294944 29.469148 -0.000000 -0.000000 -0.000002 -0.030364 -3.619853 -3.131849 1.500460 -3.425821 47.295228 0.000001 -0.000002 -0.000000 0.239666 -6.342764 2.622064 0.613282 -2.311938 29.709380 0.000001 0.000002 -0.000000 -11.640142 -11.619121 13.900469 0.283967 -1.602922 20.091259 0.000001 -0.000000 -0.000000 0.000000 -0.000001 -0.000001 0.000000 -0.000002 -0.000000 0.000000 -0.000001 -0.000000 -0.000002 0.000003 -0.000000 -0.000002 0.000004 -0.000001 -0.000002 0.000003 -0.000000 -0.000002 0.000005 -0.000000 0.000001 0.000000 -0.000000 0.000001 0.000000 -0.000000 0.000001 0.000000 -0.000000 0.000001 0.000000 -0.000000 0.000001 0.000000 -0.000000 0.000001 0.000000 -0.000000 0.000001 0.000000 -0.000000 0.000002 -0.000000 -0.000000 0.000001 -0.000000 -0.000000 
